<svg width="42" height="30" viewBox="0 0 42 30" fill="none" xmlns="http://www.w3.org/2000/svg">
<path d="M2 14H1V16H2V14ZM40.7071 15.7071C41.0976 15.3166 41.0976 14.6834 40.7071 14.2929L34.3431 7.92893C33.9526 7.53841 33.3195 7.53841 32.9289 7.92893C32.5384 8.31946 32.5384 8.95262 32.9289 9.34315L38.5858 15L32.9289 20.6569C32.5384 21.0474 32.5384 21.6805 32.9289 22.0711C33.3195 22.4616 33.9526 22.4616 34.3431 22.0711L40.7071 15.7071ZM3.9 16C4.45228 16 4.9 15.5523 4.9 15C4.9 14.4477 4.45228 14 3.9 14V16ZM11.5 14C10.9477 14 10.5 14.4477 10.5 15C10.5 15.5523 10.9477 16 11.5 16V14ZM22.9 16C23.4523 16 23.9 15.5523 23.9 15C23.9 14.4477 23.4523 14 22.9 14V16ZM38.1 14C37.5477 14 37.1 14.4477 37.1 15C37.1 15.5523 37.5477 16 38.1 16V14ZM2 16H3.9V14H2V16ZM11.5 16H22.9V14H11.5V16ZM38.1 16H40V14H38.1V16ZM2 13H0V17H2V13ZM41.4142 16.4142C42.1953 15.6332 42.1953 14.3668 41.4142 13.5858L28.6863 0.857864C27.9052 0.0768156 26.6389 0.0768156 25.8579 0.857864C25.0768 1.63891 25.0768 2.90524 25.8579 3.68629L37.1716 15L25.8579 26.3137C25.0768 27.0948 25.0768 28.3611 25.8579 29.1421C26.6389 29.9232 27.9052 29.9232 28.6863 29.1421L41.4142 16.4142ZM3.9 17C5.00457 17 5.9 16.1046 5.9 15C5.9 13.8954 5.00457 13 3.9 13V17ZM11.5 13C10.3954 13 9.5 13.8954 9.5 15C9.5 16.1046 10.3954 17 11.5 17V13ZM22.9 17C24.0046 17 24.9 16.1046 24.9 15C24.9 13.8954 24.0046 13 22.9 13V17ZM38.1 13C36.9954 13 36.1 13.8954 36.1 15C36.1 16.1046 36.9954 17 38.1 17V13ZM2 17H3.9V13H2V17ZM11.5 17H22.9V13H11.5V17ZM38.1 17H40V13H38.1V17Z" fill="#EBEEF6"/>
</svg>
