<svg width="42" height="30" viewBox="0 0 42 30" fill="none" xmlns="http://www.w3.org/2000/svg">
<path d="M40 14H41V16H40V14ZM1.29289 15.7071C0.90237 15.3166 0.90237 14.6834 1.29289 14.2929L7.65685 7.92893C8.04738 7.53841 8.68054 7.53841 9.07107 7.92893C9.46159 8.31946 9.46159 8.95262 9.07107 9.34315L3.41422 15L9.07107 20.6569C9.46159 21.0474 9.46159 21.6805 9.07107 22.0711C8.68054 22.4616 8.04738 22.4616 7.65685 22.0711L1.29289 15.7071ZM38.1 16C37.5477 16 37.1 15.5523 37.1 15C37.1 14.4477 37.5477 14 38.1 14V16ZM30.5 14C31.0523 14 31.5 14.4477 31.5 15C31.5 15.5523 31.0523 16 30.5 16V14ZM19.1 16C18.5477 16 18.1 15.5523 18.1 15C18.1 14.4477 18.5477 14 19.1 14V16ZM3.9 14C4.45229 14 4.9 14.4477 4.9 15C4.9 15.5523 4.45229 16 3.9 16V14ZM40 16H38.1V14H40V16ZM30.5 16H19.1V14H30.5V16ZM3.9 16H2V14H3.9V16ZM40 13H42V17H40V13ZM0.585785 16.4142C-0.195263 15.6332 -0.195263 14.3668 0.585785 13.5858L13.3137 0.857864C14.0948 0.0768156 15.3611 0.0768156 16.1421 0.857864C16.9232 1.63891 16.9232 2.90524 16.1421 3.68629L4.82843 15L16.1421 26.3137C16.9232 27.0948 16.9232 28.3611 16.1421 29.1421C15.3611 29.9232 14.0948 29.9232 13.3137 29.1421L0.585785 16.4142ZM38.1 17C36.9954 17 36.1 16.1046 36.1 15C36.1 13.8954 36.9954 13 38.1 13V17ZM30.5 13C31.6046 13 32.5 13.8954 32.5 15C32.5 16.1046 31.6046 17 30.5 17V13ZM19.1 17C17.9954 17 17.1 16.1046 17.1 15C17.1 13.8954 17.9954 13 19.1 13V17ZM3.9 13C5.00457 13 5.9 13.8954 5.9 15C5.9 16.1046 5.00457 17 3.9 17V13ZM40 17H38.1V13H40V17ZM30.5 17H19.1V13H30.5V17ZM3.9 17H2V13H3.9V17Z" fill="#EBEEF6"/>
</svg>
